<svg xmlns="http://www.w3.org/2000/svg"><symbol id="ArrowRight" viewBox="0 0 256 256"><path d="M221.66,133.66l-72,72a8,8,0,0,1-11.32-11.32L196.69,136H40a8,8,0,0,1,0-16H196.69L138.34,61.66a8,8,0,0,1,11.32-11.32l72,72A8,8,0,0,1,221.66,133.66Z"></path></symbol>
<symbol id="ArrowLeft" viewBox="0 0 256 256"><path d="M224,128a8,8,0,0,1-8,8H59.31l58.35,58.34a8,8,0,0,1-11.32,11.32l-72-72a8,8,0,0,1,0-11.32l72-72a8,8,0,0,1,11.32,11.32L59.31,120H216A8,8,0,0,1,224,128Z"></path></symbol>
<symbol id="ShieldCheck" viewBox="0 0 256 256"><path d="M208,40H48A16,16,0,0,0,32,56v56c0,52.72,25.52,84.67,46.93,102.19,23.06,18.86,46,25.26,47,25.53a8,8,0,0,0,4.2,0c1-.27,23.91-6.67,47-25.53C198.48,196.67,224,164.72,224,112V56A16,16,0,0,0,208,40Zm0,72c0,37.07-13.66,67.16-40.6,89.42A129.3,129.3,0,0,1,128,223.62a128.25,128.25,0,0,1-38.92-21.81C61.82,179.51,48,149.3,48,112l0-56,160,0ZM82.34,141.66a8,8,0,0,1,11.32-11.32L112,148.69l50.34-50.35a8,8,0,0,1,11.32,11.32l-56,56a8,8,0,0,1-11.32,0Z"></path></symbol>
<symbol id="HandPalm" viewBox="0 0 256 256"><path d="M188,88a27.75,27.75,0,0,0-12,2.71V60a28,28,0,0,0-41.36-24.6A28,28,0,0,0,80,44v6.71A27.75,27.75,0,0,0,68,48,28,28,0,0,0,40,76v76a88,88,0,0,0,176,0V116A28,28,0,0,0,188,88Zm12,64a72,72,0,0,1-144,0V76a12,12,0,0,1,24,0v44a8,8,0,0,0,16,0V44a12,12,0,0,1,24,0v68a8,8,0,0,0,16,0V60a12,12,0,0,1,24,0v68.67A48.08,48.08,0,0,0,120,176a8,8,0,0,0,16,0,32,32,0,0,1,32-32,8,8,0,0,0,8-8V116a12,12,0,0,1,24,0Z"></path></symbol>
<symbol id="Lightning" viewBox="0 0 256 256"><path d="M215.79,118.17a8,8,0,0,0-5-5.66L153.18,90.9l14.66-73.33a8,8,0,0,0-13.69-7l-112,120a8,8,0,0,0,3,13l57.63,21.61L88.16,238.43a8,8,0,0,0,13.69,7l112-120A8,8,0,0,0,215.79,118.17ZM109.37,214l10.47-52.38a8,8,0,0,0-5-9.06L62,132.71l84.62-90.66L136.16,94.43a8,8,0,0,0,5,9.06l52.8,19.8Z"></path></symbol>
<symbol id="Check" viewBox="0 0 256 256"><path d="M229.66,77.66l-128,128a8,8,0,0,1-11.32,0l-56-56a8,8,0,0,1,11.32-11.32L96,188.69,218.34,66.34a8,8,0,0,1,11.32,11.32Z"></path></symbol>
<symbol id="X" viewBox="0 0 256 256"><path d="M205.66,194.34a8,8,0,0,1-11.32,11.32L128,139.31,61.66,205.66a8,8,0,0,1-11.32-11.32L116.69,128,50.34,61.66A8,8,0,0,1,61.66,50.34L128,116.69l66.34-66.35a8,8,0,0,1,11.32,11.32L139.31,128Z"></path></symbol>
<symbol id="Timer" viewBox="0 0 256 256"><path d="M128,40a96,96,0,1,0,96,96A96.11,96.11,0,0,0,128,40Zm0,176a80,80,0,1,1,80-80A80.09,80.09,0,0,1,128,216ZM173.66,90.34a8,8,0,0,1,0,11.32l-40,40a8,8,0,0,1-11.32-11.32l40-40A8,8,0,0,1,173.66,90.34ZM96,16a8,8,0,0,1,8-8h48a8,8,0,0,1,0,16H104A8,8,0,0,1,96,16Z"></path></symbol>
<symbol id="Phone" viewBox="0 0 256 256"><path d="M222.37,158.46l-47.11-21.11-.13-.06a16,16,0,0,0-15.17,1.4,8.12,8.12,0,0,0-.75.56L134.87,160c-15.42-7.49-31.34-23.29-38.83-38.51l20.78-24.71c.2-.25.39-.5.57-.77a16,16,0,0,0,1.32-15.06l0-.12L97.54,33.64a16,16,0,0,0-16.62-9.52A56.26,56.26,0,0,0,32,80c0,79.4,64.6,144,144,144a56.26,56.26,0,0,0,55.88-48.92A16,16,0,0,0,222.37,158.46ZM176,208A128.14,128.14,0,0,1,48,80,40.2,40.2,0,0,1,82.87,40a.61.61,0,0,0,0,.12l21,47L83.2,111.86a6.13,6.13,0,0,0-.57.77,16,16,0,0,0-1,15.7c9.06,18.53,27.73,37.06,46.46,46.11a16,16,0,0,0,15.75-1.14,8.44,8.44,0,0,0,.74-.56L168.89,152l47,21.05h0s.08,0,.11,0A40.21,40.21,0,0,1,176,208Z"></path></symbol>
<symbol id="ChatCircleText" viewBox="0 0 256 256"><path d="M168,112a8,8,0,0,1-8,8H96a8,8,0,0,1,0-16h64A8,8,0,0,1,168,112Zm-8,24H96a8,8,0,0,0,0,16h64a8,8,0,0,0,0-16Zm72-8A104,104,0,0,1,79.12,219.82L45.07,231.17a16,16,0,0,1-20.24-20.24l11.35-34.05A104,104,0,1,1,232,128Zm-16,0A88,88,0,1,0,51.81,172.06a8,8,0,0,1,.66,6.54L40,216,77.4,203.53a7.85,7.85,0,0,1,2.53-.42,8,8,0,0,1,4,1.08A88,88,0,0,0,216,128Z"></path></symbol>
<symbol id="CreditCard" viewBox="0 0 256 256"><path d="M224,48H32A16,16,0,0,0,16,64V192a16,16,0,0,0,16,16H224a16,16,0,0,0,16-16V64A16,16,0,0,0,224,48Zm0,16V88H32V64Zm0,128H32V104H224v88Zm-16-24a8,8,0,0,1-8,8H168a8,8,0,0,1,0-16h32A8,8,0,0,1,208,168Zm-64,0a8,8,0,0,1-8,8H120a8,8,0,0,1,0-16h16A8,8,0,0,1,144,168Z"></path></symbol>
<symbol id="QrCode" viewBox="0 0 256 256"><path d="M104,40H56A16,16,0,0,0,40,56v48a16,16,0,0,0,16,16h48a16,16,0,0,0,16-16V56A16,16,0,0,0,104,40Zm0,64H56V56h48v48Zm0,32H56a16,16,0,0,0-16,16v48a16,16,0,0,0,16,16h48a16,16,0,0,0,16-16V152A16,16,0,0,0,104,136Zm0,64H56V152h48v48ZM200,40H152a16,16,0,0,0-16,16v48a16,16,0,0,0,16,16h48a16,16,0,0,0,16-16V56A16,16,0,0,0,200,40Zm0,64H152V56h48v48Zm-64,72V144a8,8,0,0,1,16,0v32a8,8,0,0,1-16,0Zm80-16a8,8,0,0,1-8,8H184v40a8,8,0,0,1-8,8H144a8,8,0,0,1,0-16h24V144a8,8,0,0,1,16,0v8h24A8,8,0,0,1,216,160Zm0,32v16a8,8,0,0,1-16,0V192a8,8,0,0,1,16,0Z"></path></symbol>
<symbol id="EnvelopeSimple" viewBox="0 0 256 256"><path d="M224,48H32a8,8,0,0,0-8,8V192a16,16,0,0,0,16,16H216a16,16,0,0,0,16-16V56A8,8,0,0,0,224,48ZM203.43,64,128,133.15,52.57,64ZM216,192H40V74.19l82.59,75.71a8,8,0,0,0,10.82,0L216,74.19V192Z"></path></symbol>
<symbol id="LockKey" viewBox="0 0 256 256"><path d="M128,112a28,28,0,0,0-8,54.83V184a8,8,0,0,0,16,0V166.83A28,28,0,0,0,128,112Zm0,40a12,12,0,1,1,12-12A12,12,0,0,1,128,152Zm80-72H176V56a48,48,0,0,0-96,0V80H48A16,16,0,0,0,32,96V208a16,16,0,0,0,16,16H208a16,16,0,0,0,16-16V96A16,16,0,0,0,208,80ZM96,56a32,32,0,0,1,64,0V80H96ZM208,208H48V96H208V208Z"></path></symbol>
<symbol id="Warning" viewBox="0 0 256 256"><path d="M236.8,188.09,149.35,36.22h0a24.76,24.76,0,0,0-42.7,0L19.2,188.09a23.51,23.51,0,0,0,0,23.72A24.35,24.35,0,0,0,40.55,224h174.9a24.35,24.35,0,0,0,21.33-12.19A23.51,23.51,0,0,0,236.8,188.09ZM222.93,203.8a8.5,8.5,0,0,1-7.48,4.2H40.55a8.5,8.5,0,0,1-7.48-4.2,7.59,7.59,0,0,1,0-7.72L120.52,44.21a8.75,8.75,0,0,1,15,0l87.45,151.87A7.59,7.59,0,0,1,222.93,203.8ZM120,144V104a8,8,0,0,1,16,0v40a8,8,0,0,1-16,0Zm20,36a12,12,0,1,1-12-12A12,12,0,0,1,140,180Z"></path></symbol>
<symbol id="Headset" viewBox="0 0 256 256"><path d="M201.89,54.66A103.43,103.43,0,0,0,128.79,24H128A104,104,0,0,0,24,128v56a24,24,0,0,0,24,24H64a24,24,0,0,0,24-24V144a24,24,0,0,0-24-24H40.36A88.12,88.12,0,0,1,190.54,65.93,87.39,87.39,0,0,1,215.65,120H192a24,24,0,0,0-24,24v40a24,24,0,0,0,24,24h24a24,24,0,0,1-24,24H136a8,8,0,0,0,0,16h56a40,40,0,0,0,40-40V128A103.41,103.41,0,0,0,201.89,54.66ZM64,136a8,8,0,0,1,8,8v40a8,8,0,0,1-8,8H48a8,8,0,0,1-8-8V136Zm128,56a8,8,0,0,1-8-8V144a8,8,0,0,1,8-8h24v56Z"></path></symbol>
<symbol id="FolderOpen" viewBox="0 0 256 256"><path d="M245,110.64A16,16,0,0,0,232,104H216V88a16,16,0,0,0-16-16H130.67L102.94,51.2a16.14,16.14,0,0,0-9.6-3.2H40A16,16,0,0,0,24,64V208h0a8,8,0,0,0,8,8H211.1a8,8,0,0,0,7.59-5.47l28.49-85.47A16.05,16.05,0,0,0,245,110.64ZM93.34,64,123.2,86.4A8,8,0,0,0,128,88h72v16H69.77a16,16,0,0,0-15.18,10.94L40,158.7V64Zm112,136H43.1l26.67-80H232Z"></path></symbol>
<symbol id="Flag" viewBox="0 0 256 256"><path d="M42.76,50A8,8,0,0,0,40,56V224a8,8,0,0,0,16,0V179.77c26.79-21.16,49.87-9.75,76.45,3.41,16.4,8.11,34.06,16.85,53,16.85,13.93,0,28.54-4.75,43.82-18a8,8,0,0,0,2.76-6V56A8,8,0,0,0,218.76,50c-28,24.23-51.72,12.49-79.21-1.12C111.07,34.76,78.78,18.79,42.76,50ZM216,172.25c-26.79,21.16-49.87,9.74-76.45-3.41-25-12.35-52.81-26.13-83.55-8.4V59.79c26.79-21.16,49.87-9.75,76.45,3.4,25,12.35,52.82,26.13,83.55,8.4Z"></path></symbol>
<symbol id="Trash" viewBox="0 0 256 256"><path d="M216,48H176V40a24,24,0,0,0-24-24H104A24,24,0,0,0,80,40v8H40a8,8,0,0,0,0,16h8V208a16,16,0,0,0,16,16H192a16,16,0,0,0,16-16V64h8a8,8,0,0,0,0-16ZM96,40a8,8,0,0,1,8-8h48a8,8,0,0,1,8,8v8H96Zm96,168H64V64H192ZM112,104v64a8,8,0,0,1-16,0V104a8,8,0,0,1,16,0Zm48,0v64a8,8,0,0,1-16,0V104a8,8,0,0,1,16,0Z"></path></symbol>
<symbol id="PhoneCall" viewBox="0 0 256 256"><path d="M144.27,45.93a8,8,0,0,1,9.8-5.66,86.22,86.22,0,0,1,61.66,61.66,8,8,0,0,1-5.66,9.8A8.23,8.23,0,0,1,208,112a8,8,0,0,1-7.73-5.94,70.35,70.35,0,0,0-50.33-50.33A8,8,0,0,1,144.27,45.93Zm-2.33,41.8c13.79,3.68,22.65,12.54,26.33,26.33A8,8,0,0,0,176,120a8.23,8.23,0,0,0,2.07-.27,8,8,0,0,0,5.66-9.8c-5.12-19.16-18.5-32.54-37.66-37.66a8,8,0,1,0-4.13,15.46Zm81.94,95.35A56.26,56.26,0,0,1,168,232C88.6,232,24,167.4,24,88A56.26,56.26,0,0,1,72.92,32.12a16,16,0,0,1,16.62,9.52l21.12,47.15,0,.12A16,16,0,0,1,109.39,104c-.18.27-.37.52-.57.77L88,129.45c7.49,15.22,23.41,31,38.83,38.51l24.34-20.71a8.12,8.12,0,0,1,.75-.56,16,16,0,0,1,15.17-1.4l.13.06,47.11,21.11A16,16,0,0,1,223.88,183.08Zm-15.88-2s-.07,0-.11,0h0l-47-21.05-24.35,20.71a8.44,8.44,0,0,1-.74.56,16,16,0,0,1-15.75,1.14c-18.73-9.05-37.4-27.58-46.46-46.11a16,16,0,0,1,1-15.7,6.13,6.13,0,0,1,.57-.77L96,95.15l-21-47a.61.61,0,0,1,0-.12A40.2,40.2,0,0,0,40,88,128.14,128.14,0,0,0,168,216,40.21,40.21,0,0,0,208,181.07Z"></path></symbol>
<symbol id="Money" viewBox="0 0 256 256"><path d="M128,88a40,40,0,1,0,40,40A40,40,0,0,0,128,88Zm0,64a24,24,0,1,1,24-24A24,24,0,0,1,128,152ZM240,56H16a8,8,0,0,0-8,8V192a8,8,0,0,0,8,8H240a8,8,0,0,0,8-8V64A8,8,0,0,0,240,56ZM193.65,184H62.35A56.78,56.78,0,0,0,24,145.65v-35.3A56.78,56.78,0,0,0,62.35,72h131.3A56.78,56.78,0,0,0,232,110.35v35.3A56.78,56.78,0,0,0,193.65,184ZM232,93.37A40.81,40.81,0,0,1,210.63,72H232ZM45.37,72A40.81,40.81,0,0,1,24,93.37V72ZM24,162.63A40.81,40.81,0,0,1,45.37,184H24ZM210.63,184A40.81,40.81,0,0,1,232,162.63V184Z"></path></symbol>
<symbol id="Hourglass" viewBox="0 0 256 256"><path d="M200,75.64V40a16,16,0,0,0-16-16H72A16,16,0,0,0,56,40V76a16.07,16.07,0,0,0,6.4,12.8L114.67,128,62.4,167.2A16.07,16.07,0,0,0,56,180v36a16,16,0,0,0,16,16H184a16,16,0,0,0,16-16V180.36a16.09,16.09,0,0,0-6.35-12.77L141.27,128l52.38-39.6A16.05,16.05,0,0,0,200,75.64ZM184,216H72V180l56-42,56,42.35Zm0-140.36L128,118,72,76V40H184Z"></path></symbol>
<symbol id="ArrowsOut" viewBox="0 0 256 256"><path d="M216,48V96a8,8,0,0,1-16,0V67.31l-42.34,42.35a8,8,0,0,1-11.32-11.32L188.69,56H160a8,8,0,0,1,0-16h48A8,8,0,0,1,216,48ZM98.34,146.34,56,188.69V160a8,8,0,0,0-16,0v48a8,8,0,0,0,8,8H96a8,8,0,0,0,0-16H67.31l42.35-42.34a8,8,0,0,0-11.32-11.32ZM208,152a8,8,0,0,0-8,8v28.69l-42.34-42.35a8,8,0,0,0-11.32,11.32L188.69,200H160a8,8,0,0,0,0,16h48a8,8,0,0,0,8-8V160A8,8,0,0,0,208,152ZM67.31,56H96a8,8,0,0,0,0-16H48a8,8,0,0,0-8,8V96a8,8,0,0,0,16,0V67.31l42.34,42.35a8,8,0,0,0,11.32-11.32Z"></path></symbol>
<symbol id="Monitor" viewBox="0 0 256 256"><path d="M208,40H48A24,24,0,0,0,24,64V176a24,24,0,0,0,24,24H208a24,24,0,0,0,24-24V64A24,24,0,0,0,208,40Zm8,136a8,8,0,0,1-8,8H48a8,8,0,0,1-8-8V64a8,8,0,0,1,8-8H208a8,8,0,0,1,8,8Zm-48,48a8,8,0,0,1-8,8H96a8,8,0,0,1,0-16h64A8,8,0,0,1,168,224Z"></path></symbol>
<symbol id="DeviceMobile" viewBox="0 0 256 256"><path d="M176,16H80A24,24,0,0,0,56,40V216a24,24,0,0,0,24,24h96a24,24,0,0,0,24-24V40A24,24,0,0,0,176,16ZM72,64H184V192H72Zm8-32h96a8,8,0,0,1,8,8v8H72V40A8,8,0,0,1,80,32Zm96,192H80a8,8,0,0,1-8-8v-8H184v8A8,8,0,0,1,176,224Z"></path></symbol>
<symbol id="SpeakerHigh" viewBox="0 0 256 256"><path d="M155.51,24.81a8,8,0,0,0-8.42.88L77.25,80H32A16,16,0,0,0,16,96v64a16,16,0,0,0,16,16H77.25l69.84,54.31A8,8,0,0,0,160,224V32A8,8,0,0,0,155.51,24.81ZM32,96H72v64H32ZM144,207.64,88,164.09V91.91l56-43.55Zm54-106.08a40,40,0,0,1,0,52.88,8,8,0,0,1-12-10.58,24,24,0,0,0,0-31.72,8,8,0,0,1,12-10.58ZM248,128a79.9,79.9,0,0,1-20.37,53.34,8,8,0,0,1-11.92-10.67,64,64,0,0,0,0-85.33,8,8,0,1,1,11.92-10.67A79.83,79.83,0,0,1,248,128Z"></path></symbol>
<symbol id="SpeakerSlash" viewBox="0 0 256 256"><path d="M53.92,34.62A8,8,0,1,0,42.08,45.38L73.55,80H32A16,16,0,0,0,16,96v64a16,16,0,0,0,16,16H77.25l69.84,54.31A8,8,0,0,0,160,224V175.09l42.08,46.29a8,8,0,1,0,11.84-10.76ZM32,96H72v64H32ZM144,207.64,88,164.09V95.89l56,61.6Zm42-63.77a24,24,0,0,0,0-31.72,8,8,0,1,1,12-10.57,40,40,0,0,1,0,52.88,8,8,0,0,1-12-10.59Zm-80.16-76a8,8,0,0,1,1.4-11.23l39.85-31A8,8,0,0,1,160,32v74.83a8,8,0,0,1-16,0V48.36l-26.94,21A8,8,0,0,1,105.84,67.91ZM248,128a79.9,79.9,0,0,1-20.37,53.34,8,8,0,0,1-11.92-10.67,64,64,0,0,0,0-85.33,8,8,0,1,1,11.92-10.67A79.83,79.83,0,0,1,248,128Z"></path></symbol>
<symbol id="ArrowCounterClockwise" viewBox="0 0 256 256"><path d="M224,128a96,96,0,0,1-94.71,96H128A95.38,95.38,0,0,1,62.1,197.8a8,8,0,0,1,11-11.63A80,80,0,1,0,71.43,71.39a3.07,3.07,0,0,1-.26.25L44.59,96H72a8,8,0,0,1,0,16H24a8,8,0,0,1-8-8V56a8,8,0,0,1,16,0V85.8L60.25,60A96,96,0,0,1,224,128Z"></path></symbol>
<symbol id="Info" viewBox="0 0 256 256"><path d="M128,24A104,104,0,1,0,232,128,104.11,104.11,0,0,0,128,24Zm0,192a88,88,0,1,1,88-88A88.1,88.1,0,0,1,128,216Zm16-40a8,8,0,0,1-8,8,16,16,0,0,1-16-16V128a8,8,0,0,1,0-16,16,16,0,0,1,16,16v40A8,8,0,0,1,144,176ZM112,84a12,12,0,1,1,12,12A12,12,0,0,1,112,84Z"></path></symbol>
<symbol id="House" viewBox="0 0 256 256"><path d="M219.31,108.68l-80-80a16,16,0,0,0-22.62,0l-80,80A15.87,15.87,0,0,0,32,120v96a8,8,0,0,0,8,8h64a8,8,0,0,0,8-8V160h32v56a8,8,0,0,0,8,8h64a8,8,0,0,0,8-8V120A15.87,15.87,0,0,0,219.31,108.68ZM208,208H160V152a8,8,0,0,0-8-8H104a8,8,0,0,0-8,8v56H48V120l80-80,80,80Z"></path></symbol>
<symbol id="Trophy" viewBox="0 0 256 256"><path d="M232,64H208V48a8,8,0,0,0-8-8H56a8,8,0,0,0-8,8V64H24A16,16,0,0,0,8,80V96a40,40,0,0,0,40,40h3.65A80.13,80.13,0,0,0,120,191.61V216H96a8,8,0,0,0,0,16h64a8,8,0,0,0,0-16H136V191.58c31.94-3.23,58.44-25.64,68.08-55.58H208a40,40,0,0,0,40-40V80A16,16,0,0,0,232,64ZM48,120A24,24,0,0,1,24,96V80H48v32q0,4,.39,8Zm144-8.9c0,35.52-29,64.64-64,64.9a64,64,0,0,1-64-64V56H192ZM232,96a24,24,0,0,1-24,24h-.5a81.81,81.81,0,0,0,.5-8.9V80h24Z"></path></symbol>
<symbol id="CheckCircle" viewBox="0 0 256 256"><path d="M173.66,98.34a8,8,0,0,1,0,11.32l-56,56a8,8,0,0,1-11.32,0l-24-24a8,8,0,0,1,11.32-11.32L112,148.69l50.34-50.35A8,8,0,0,1,173.66,98.34ZM232,128A104,104,0,1,1,128,24,104.11,104.11,0,0,1,232,128Zm-16,0a88,88,0,1,0-88,88A88.1,88.1,0,0,0,216,128Z"></path></symbol></svg>